<?xml version="1.0" encoding="UTF-8" standalone="no"?>
<svg width="18px" height="18px" viewBox="0 0 18 18" version="1.1" xmlns="http://www.w3.org/2000/svg" xmlns:xlink="http://www.w3.org/1999/xlink">
    <!-- Generator: Sketch Beta 3.6 (26304) - http://www.bohemiancoding.com/sketch -->
    <title>close</title>
    <desc>Created with Sketch Beta.</desc>
    <defs></defs>
    <g id="Page-1" stroke="none" stroke-width="1" fill="none" fill-rule="evenodd">
        <g id="Artboard" transform="translate(-1071.000000, -206.000000)" fill="#8A93A4">
            <g id="cross" transform="translate(1071.000000, 206.000000)">
                <g id="Designs">
                    <g id="02.-Settings">
                        <g id="Group">
                            <g id="navbar">
                                <path d="M10.3632825,9.00000001 L16.9507063,2.41257621 C17.3306022,2.03268031 17.3289415,1.42397866 16.9524814,1.0475186 C16.5733967,0.668433896 15.9648642,0.671853281 15.5874238,1.04929368 L9,7.63671748 L2.41257621,1.04929368 C2.03268031,0.669397782 1.42397866,0.671058533 1.0475186,1.0475186 C0.668433896,1.4266033 0.671853281,2.03513581 1.04929368,2.41257621 L7.63671747,9.00000001 L1.04929359,15.5874239 C0.669397646,15.9673198 0.671058533,16.5760214 1.0475186,16.9524814 C1.4266033,17.3315661 2.0351359,17.3281467 2.41257612,16.9507064 L9,10.3632825 L15.5874238,16.9507063 C15.9673197,17.3306022 16.5760213,17.3289415 16.9524814,16.9524814 C17.3315661,16.5733967 17.3281467,15.9648642 16.9507063,15.5874238 L10.3632825,9.00000001 L10.3632825,9.00000001 Z" id="close"></path>
                            </g>
                        </g>
                    </g>
                </g>
            </g>
        </g>
    </g>
</svg>